<svg width="1200" height="1009" viewBox="0 0 1200 1009" fill="none" xmlns="http://www.w3.org/2000/svg">
<g clip-path="url(#clip0_0_336)">
<rect width="1200" height="1009" fill="#ECF6FF"/>
<mask id="mask0_0_336" style="mask-type:alpha" maskUnits="userSpaceOnUse" x="23" y="15" width="1272" height="999">
<g clip-path="url(#clip1_0_336)">
<path d="M824.303 950.302C824.303 1097.56 726.939 1216.94 606.833 1216.94C486.727 1216.94 -182.364 1182.61 -182.364 1035.35C-182.364 888.094 -132.905 539.27 -12.7999 539.27C107.306 539.27 824.303 803.042 824.303 950.302Z" fill="url(#paint0_radial_0_336)"/>
<path d="M1002.44 421.381C1354.43 723.569 1193.19 570.207 1525.02 529.886C1575.99 534.654 1664.09 526.665 1608.78 456.57C1539.64 368.952 1571.55 299.324 1483.65 205.069C1395.74 110.814 1346.35 11.2247 1214.46 -139.445C1082.57 -290.114 1057.81 -153.114 892.094 -149.988C726.383 -146.862 800.529 -133.704 546.602 127.606C292.675 388.916 650.456 119.193 1002.44 421.381Z" fill="#D9D9D9"/>
<path d="M712.493 663.643C341.857 880.243 524.998 786.812 466.466 1117.14C447.673 1163.62 429.703 1250.26 508.168 1225C606.249 1193.41 659.43 1250.68 768.797 1203.87C878.163 1157.06 981.32 1148.85 1153.69 1082.21C1326.05 1015.57 1210.57 938.95 1255.02 780.589C1299.46 622.229 1266.55 687.44 1105.21 345.292C943.869 3.1432 1083.13 447.042 712.493 663.643Z" fill="#D9D9D9"/>
</g>
</mask>
<g mask="url(#mask0_0_336)">
<g opacity="0.09">
<line x1="-50.6172" y1="624.998" x2="1460.96" y2="624.998" stroke="#222020" stroke-width="1.2607"/>
<line x1="-50.6172" y1="947.736" x2="1460.96" y2="947.736" stroke="#222020" stroke-width="1.2607"/>
<line x1="-50.6172" y1="302.259" x2="1460.96" y2="302.259" stroke="#222020" stroke-width="1.2607"/>
<line x1="-50.6172" y1="463.627" x2="1460.96" y2="463.627" stroke="#222020" stroke-width="1.2607"/>
<line x1="-50.6172" y1="786.366" x2="1460.96" y2="786.366" stroke="#222020" stroke-width="1.2607"/>
<line x1="-50.6172" y1="140.889" x2="1460.96" y2="140.889" stroke="#222020" stroke-width="1.2607"/>
<line x1="-50.6172" y1="544.312" x2="1460.96" y2="544.312" stroke="#222020" stroke-width="1.2607"/>
<line x1="-50.6172" y1="867.05" x2="1460.96" y2="867.05" stroke="#222020" stroke-width="1.2607"/>
<line x1="-50.6172" y1="221.574" x2="1460.96" y2="221.574" stroke="#222020" stroke-width="1.2607"/>
<line x1="-50.6172" y1="382.942" x2="1460.96" y2="382.942" stroke="#222020" stroke-width="1.2607"/>
<line x1="-50.6172" y1="705.682" x2="1460.96" y2="705.682" stroke="#222020" stroke-width="1.2607"/>
<line x1="-50.6172" y1="60.2036" x2="1460.96" y2="60.2036" stroke="#222020" stroke-width="1.2607"/>
<line x1="642.139" y1="-48.8457" x2="642.139" y2="1118.56" stroke="#222020" stroke-width="1.2607"/>
<line x1="319.398" y1="-48.8457" x2="319.398" y2="1118.56" stroke="#222020" stroke-width="1.2607"/>
<line x1="964.874" y1="-48.8457" x2="964.874" y2="1118.56" stroke="#222020" stroke-width="1.2607"/>
<line x1="158.028" y1="-48.8457" x2="158.028" y2="1118.56" stroke="#222020" stroke-width="1.2607"/>
<line x1="803.504" y1="-48.8457" x2="803.504" y2="1118.56" stroke="#222020" stroke-width="1.2607"/>
<line x1="480.769" y1="-48.8457" x2="480.768" y2="1118.56" stroke="#222020" stroke-width="1.2607"/>
<line x1="1126.25" y1="-48.8457" x2="1126.25" y2="1118.56" stroke="#222020" stroke-width="1.2607"/>
<line x1="77.3457" y1="-48.8457" x2="77.3456" y2="1118.56" stroke="#222020" stroke-width="1.2607"/>
<line x1="722.822" y1="-48.8457" x2="722.822" y2="1118.56" stroke="#222020" stroke-width="1.2607"/>
<line x1="400.082" y1="-48.8457" x2="400.081" y2="1118.56" stroke="#222020" stroke-width="1.2607"/>
<line x1="1045.56" y1="-48.8457" x2="1045.56" y2="1118.56" stroke="#222020" stroke-width="1.2607"/>
<line x1="238.716" y1="-48.8457" x2="238.716" y2="1118.56" stroke="#222020" stroke-width="1.2607"/>
<line x1="884.192" y1="-48.8457" x2="884.192" y2="1118.56" stroke="#222020" stroke-width="1.2607"/>
<line x1="561.452" y1="-48.8457" x2="561.452" y2="1118.56" stroke="#222020" stroke-width="1.2607"/>
</g>
<g opacity="0.5">
<rect x="803.563" y="786.309" width="80.2262" height="80.2262" fill="#56ADCB" fill-opacity="0.5"/>
<rect x="400.141" y="786.309" width="80.2262" height="80.2262" fill="#56ADCB" fill-opacity="0.2"/>
<rect x="1126.76" y="222.433" width="80.2262" height="79.0801" fill="#56ADCB" fill-opacity="0.25"/>
<rect x="480.368" y="464.207" width="80.2262" height="79.0801" fill="#56ADCB" fill-opacity="0.15"/>
<rect x="1045.39" y="302.659" width="80.2262" height="79.0801" fill="#56ADCB" fill-opacity="0.25"/>
<rect x="399.995" y="222.433" width="80.2262" height="79.0801" fill="#56ADCB" fill-opacity="0.15"/>
<rect x="1045.39" y="222.433" width="80.2262" height="79.0801" fill="#56ADCB" fill-opacity="0.25"/>
<rect x="399.995" y="464.207" width="80.2262" height="79.0801" fill="#56ADCB" fill-opacity="0.15"/>
<rect x="319.915" y="786.309" width="80.2262" height="80.2262" fill="#56ADCB" fill-opacity="0.2"/>
<rect x="319.915" y="866.534" width="80.2262" height="81.3723" fill="#56ADCB" fill-opacity="0.2"/>
<rect x="158.316" y="706.082" width="80.2262" height="80.2262" fill="#56ADCB" fill-opacity="0.2"/>
<rect x="965.163" y="60.834" width="80.2262" height="80.2262" fill="#56ADCB" fill-opacity="0.15"/>
<rect x="884.06" y="-19.8535" width="80.2262" height="79.5062" fill="#56ADCB" fill-opacity="0.15"/>
<rect x="884.06" y="60.4053" width="80.2262" height="80.0285" fill="#56ADCB" fill-opacity="0.15"/>
<rect x="158.315" y="139.914" width="81.3723" height="82.5184" fill="#56ADCB" fill-opacity="0.2"/>
<rect x="76.9434" y="59.6875" width="81.3723" height="80.2262" fill="#56ADCB" fill-opacity="0.2"/>
<rect x="-3.28271" y="60.834" width="81.3723" height="80.2262" fill="#56ADCB" fill-opacity="0.2"/>
<rect x="76.9434" y="139.914" width="81.3723" height="82.5184" fill="#56ADCB" fill-opacity="0.2"/>
<rect x="400.14" y="-20.5391" width="81.3723" height="80.2262" fill="#56ADCB" fill-opacity="0.25"/>
<rect x="158.315" y="301.512" width="80.2262" height="81.3723" fill="#56ADCB" fill-opacity="0.2"/>
<rect x="1126.76" y="706.082" width="80.2262" height="80.2262" fill="#56ADCB" fill-opacity="0.15"/>
</g>
</g>
</g>
<defs>
<radialGradient id="paint0_radial_0_336" cx="0" cy="0" r="1" gradientUnits="userSpaceOnUse" gradientTransform="translate(136.593 956.56) rotate(-29.3932) scale(777.019 1335.47)">
<stop stop-color="white"/>
<stop offset="1" stop-color="white" stop-opacity="0"/>
</radialGradient>
<clipPath id="clip0_0_336">
<rect width="1200" height="1009" fill="white"/>
</clipPath>
<clipPath id="clip1_0_336">
<rect width="1270.78" height="998.473" fill="white" transform="translate(23.7622 15.4492)"/>
</clipPath>
</defs>
</svg>
