<svg width="170" height="50" viewBox="0 0 170 50" fill="none" xmlns="http://www.w3.org/2000/svg">
<path d="M60.536 20.195C60.536 15.4472 59.1744 13.0081 56.4499 12.8744C55.3664 12.8235 54.3082 12.9952 53.2792 13.3925C52.4577 13.6849 51.9048 13.9743 51.6139 14.2664V25.6012C53.3559 26.6884 54.9031 27.1935 56.2509 27.1143C59.1052 26.9267 60.5337 24.6223 60.5337 20.1947L60.536 20.195ZM63.894 20.3921C63.894 22.8045 63.325 24.8073 62.1809 26.3986C60.9055 28.2009 59.138 29.1289 56.8782 29.1798C55.1746 29.2338 53.4185 28.7031 51.6149 27.5905V37.8915L48.6934 36.8552V13.99C49.1728 13.4053 49.7896 12.9028 50.5376 12.477C52.2763 11.4694 54.3908 10.9512 56.8766 10.9258L56.9181 10.9671C59.1907 10.9385 60.9419 11.8664 62.1716 13.7483C63.319 15.4743 63.8946 17.6874 63.8946 20.3907L63.894 20.3921Z" fill="#1E1E1E"/>
<path d="M81.7541 27.1528C81.7541 30.3886 81.4281 32.6278 80.7759 33.8768C80.1207 35.1227 78.8739 36.1176 77.0342 36.8582C75.5414 37.4428 73.9274 37.7608 72.1939 37.8149L71.7112 35.9843C73.4725 35.7459 74.7128 35.5075 75.4332 35.2691C76.8492 34.7924 77.8209 34.0613 78.3548 33.0824C78.783 32.2845 78.9939 30.7623 78.9939 28.5074V27.7509C76.9961 28.6535 74.9013 29.1019 72.714 29.1019C71.2757 29.1019 70.0066 28.6538 68.9133 27.7509C67.6858 26.7687 67.0723 25.5227 67.0723 24.0139V11.9226L69.9938 10.9277V23.0973C69.9938 24.3974 70.4159 25.3985 71.2596 26.1009C72.1034 26.8033 73.1967 27.1401 74.536 27.1147C75.8753 27.0861 77.3103 26.5711 78.8352 25.5635V11.3657H81.7567V27.1515L81.7541 27.1528Z" fill="#1E1E1E"/>
<path d="M93.1654 29.0218C92.8172 29.0504 92.4974 29.0631 92.2033 29.0631C90.5508 29.0631 89.2627 28.6721 88.3435 27.8872C87.4263 27.102 86.9659 26.0184 86.9659 24.6358V13.1934H84.9648V11.3657H86.9659V6.51351L89.8842 5.48047V11.3663H93.1668V13.1941H89.8842V24.5582C89.8842 25.6483 90.1782 26.4208 90.7663 26.8721C91.2713 27.2438 92.0738 27.4568 93.1668 27.5109V29.0239L93.1654 29.0218Z" fill="#1E1E1E"/>
<path d="M110.84 28.7841H107.919V17.57C107.919 16.429 107.65 15.4468 107.116 14.6267C106.499 13.6987 105.643 13.2347 104.543 13.2347C103.204 13.2347 101.529 13.9371 99.5192 15.3418V28.7831H96.5977V1.9788L99.5192 1.06348V13.2722C101.386 11.9212 103.425 11.2442 105.642 11.2442C107.189 11.2442 108.442 11.7624 109.4 12.7954C110.362 13.8285 110.841 15.1155 110.841 16.653V28.7802L110.84 28.7841Z" fill="#1E1E1E"/>
<path d="M126.384 19.7384C126.384 17.914 126.036 16.4091 125.342 15.2156C124.517 13.7632 123.236 12.9973 121.502 12.9177C118.299 13.102 116.701 15.3842 116.701 19.759C116.701 21.7644 117.034 23.4405 117.705 24.784C118.561 26.4973 119.847 27.3425 121.561 27.3141C124.777 27.2887 126.385 24.7651 126.385 19.7391L126.384 19.7384ZM129.584 19.7575C129.584 22.3541 128.916 24.5151 127.583 26.2401C126.116 28.1725 124.09 29.142 121.503 29.142C118.939 29.142 116.941 28.1725 115.498 26.2401C114.191 24.5141 113.539 22.3532 113.539 19.7575C113.539 17.3164 114.245 15.264 115.658 13.5912C117.151 11.8176 119.115 10.9277 121.538 10.9277C123.964 10.9277 125.939 11.8176 127.46 13.5912C128.873 15.2631 129.58 17.3151 129.58 19.7575H129.584Z" fill="#1E1E1E"/>
<path d="M146.323 28.7833H143.402V16.9333C143.402 15.6332 143.009 14.6194 142.222 13.8883C141.436 13.1605 140.387 12.8076 139.08 12.8363C137.693 12.8618 136.373 13.3131 135.119 14.1873V28.783H132.197V13.8286C133.879 12.6113 135.426 11.8166 136.838 11.4449C138.171 11.0986 139.347 10.9268 140.359 10.9268C141.053 10.9268 141.705 10.9935 142.319 11.127C143.466 11.3908 144.4 11.8803 145.119 12.5986C145.921 13.3933 146.321 14.3468 146.321 15.4623V28.783L146.323 28.7833Z" fill="#1E1E1E"/>
<path d="M19.8432 2.08656C18.34 2.0935 16.9046 2.22097 15.6424 2.4433C11.9204 3.0971 11.2448 4.46503 11.2448 6.98895V10.3216H20.0367V11.4322H11.2448H7.94585C5.3906 11.4322 3.15148 12.9596 2.45299 15.8637C1.64562 19.1931 1.60987 21.2735 2.45299 24.7496C3.07803 27.3381 4.57077 29.1811 7.12602 29.1811H10.1492V25.1866C10.1492 22.3007 12.6602 19.7539 15.6421 19.7539H24.4241C26.8688 19.7539 28.8217 17.7524 28.8217 15.3126V6.98764C28.8217 4.6183 26.8115 2.83982 24.4241 2.44199C22.9137 2.19198 21.3465 2.0784 19.8429 2.08525L19.8432 2.08656ZM15.0882 4.76667C15.9966 4.76667 16.738 5.51634 16.738 6.43786C16.738 7.35612 15.9963 8.09895 15.0882 8.09895C14.1769 8.09895 13.4384 7.35645 13.4384 6.43786C13.4384 5.51634 14.1769 4.76667 15.0882 4.76667Z" fill="url(#paint0_linear_27_114)"/>
<path d="M29.9166 11.4297V15.3134C29.9166 18.3235 27.3502 20.8569 24.4237 20.8569H15.6417C13.236 20.8569 11.2441 22.904 11.2441 25.2982V33.6232C11.2441 35.9925 13.3163 37.3862 15.6417 38.0645C18.4249 38.8784 21.0952 39.0255 24.4237 38.0645C26.6373 37.4273 28.8213 36.1445 28.8213 33.6232V30.2906H20.0393V29.1799H28.8213H33.2189C35.7741 29.1799 36.7277 27.4076 37.6164 24.7484C38.5343 22.0096 38.4953 19.3745 37.6164 15.8625C36.9848 13.3331 35.7787 11.431 33.2189 11.431H29.9199L29.9166 11.4297ZM24.9779 32.5145C25.8893 32.5145 26.6278 33.257 26.6278 34.1756C26.6278 35.0971 25.8893 35.8468 24.9779 35.8468C24.0696 35.8468 23.3281 35.0971 23.3281 34.1756C23.3281 33.2573 24.0699 32.5145 24.9779 32.5145Z" fill="url(#paint1_linear_27_114)"/>
<path d="M152.03 8.77541H152.542V5.58106H153.755V5.2002H150.816V5.58106H152.03V8.77541ZM154.21 8.77541H154.647V5.85791L155.597 8.77509H156.084L157.074 5.8677V8.77541H157.551V5.2015H156.92L155.838 8.26443L154.916 5.2015H154.21V8.77541Z" fill="#1E1E1E"/>
<path opacity="0.4438" d="M31.9293 43.731C31.9293 44.3335 30.6878 44.9114 28.4778 45.3375C26.2679 45.7636 23.2706 46.0029 20.1453 46.0029C17.02 46.0029 14.0227 45.7636 11.8128 45.3375C9.60285 44.9114 8.36133 44.3335 8.36133 43.731C8.36133 43.1284 9.60285 42.5505 11.8128 42.1244C14.0227 41.6984 17.02 41.459 20.1453 41.459C23.2706 41.459 26.2679 41.6984 28.4778 42.1244C30.6878 42.5505 31.9293 43.1284 31.9293 43.731Z" fill="url(#paint2_radial_27_114)"/>
<defs>
<linearGradient id="paint0_linear_27_114" x1="1.8334" y1="2.08584" x2="22.0189" y2="19.3776" gradientUnits="userSpaceOnUse">
<stop stop-color="#1E1E1E"/>
<stop offset="1" stop-color="#1E1E1E"/>
</linearGradient>
<linearGradient id="paint1_linear_27_114" x1="24.7705" y1="33.9063" x2="17.5373" y2="23.7287" gradientUnits="userSpaceOnUse">
<stop stop-color="#1E1E1E"/>
<stop offset="1" stop-color="#1E1E1E"/>
</linearGradient>
<radialGradient id="paint2_radial_27_114" cx="0" cy="0" r="1" gradientUnits="userSpaceOnUse" gradientTransform="translate(20.161 43.7219) rotate(-90) scale(2.27209 10.046)">
<stop stop-color="#1E1E1E" stop-opacity="0.498"/>
<stop offset="1" stop-color="#1E1E1E" stop-opacity="0"/>
</radialGradient>
</defs>
</svg>
